<svg width="25" height="25" viewBox="0 0 25 25" fill="none" xmlns="http://www.w3.org/2000/svg">
<path d="M3.646 3.90629C3.646 3.83722 3.67343 3.77099 3.72227 3.72215C3.77111 3.67331 3.83735 3.64587 3.90641 3.64587H17.9689C18.038 3.64587 18.1042 3.67331 18.1531 3.72215C18.2019 3.77099 18.2293 3.83722 18.2293 3.90629V14.323C18.2293 14.5302 18.3116 14.7289 18.4582 14.8754C18.6047 15.0219 18.8034 15.1042 19.0106 15.1042C19.2178 15.1042 19.4165 15.0219 19.563 14.8754C19.7095 14.7289 19.7918 14.5302 19.7918 14.323V3.90629C19.7918 3.42282 19.5998 2.95916 19.2579 2.61729C18.916 2.27543 18.4524 2.08337 17.9689 2.08337H3.90641C3.42295 2.08337 2.95928 2.27543 2.61742 2.61729C2.27555 2.95916 2.0835 3.42282 2.0835 3.90629V21.0938C2.0835 22.1 2.90016 22.9167 3.90641 22.9167H11.1981C11.4053 22.9167 11.604 22.8344 11.7505 22.6879C11.897 22.5414 11.9793 22.3427 11.9793 22.1355C11.9793 21.9283 11.897 21.7295 11.7505 21.583C11.604 21.4365 11.4053 21.3542 11.1981 21.3542H3.90641C3.83735 21.3542 3.77111 21.3268 3.72227 21.2779C3.67343 21.2291 3.646 21.1629 3.646 21.0938V3.90629Z" fill="black"/>
<path d="M6.51025 7.29163C6.30305 7.29163 6.10434 7.37394 5.95783 7.52045C5.81131 7.66696 5.729 7.86568 5.729 8.07288C5.729 8.28008 5.81131 8.47879 5.95783 8.6253C6.10434 8.77182 6.30305 8.85413 6.51025 8.85413H15.3644C15.5716 8.85413 15.7703 8.77182 15.9168 8.6253C16.0634 8.47879 16.1457 8.28008 16.1457 8.07288C16.1457 7.86568 16.0634 7.66696 15.9168 7.52045C15.7703 7.37394 15.5716 7.29163 15.3644 7.29163H6.51025ZM5.729 12.2395C5.729 12.0323 5.81131 11.8336 5.95783 11.6871C6.10434 11.5406 6.30305 11.4583 6.51025 11.4583H11.1978C11.405 11.4583 11.6037 11.5406 11.7502 11.6871C11.8967 11.8336 11.979 12.0323 11.979 12.2395C11.979 12.4467 11.8967 12.6455 11.7502 12.792C11.6037 12.9385 11.405 13.0208 11.1978 13.0208H6.51025C6.30305 13.0208 6.10434 12.9385 5.95783 12.792C5.81131 12.6455 5.729 12.4467 5.729 12.2395ZM22.6873 16.9583C22.7641 16.8868 22.8257 16.8005 22.8684 16.7047C22.9111 16.6089 22.934 16.5054 22.9359 16.4005C22.9377 16.2956 22.9184 16.1914 22.8791 16.0941C22.8398 15.9968 22.7814 15.9085 22.7072 15.8343C22.633 15.7601 22.5446 15.7016 22.4473 15.6623C22.3501 15.623 22.2459 15.6037 22.141 15.6056C22.0361 15.6074 21.9326 15.6304 21.8368 15.6731C21.7409 15.7158 21.6547 15.7774 21.5832 15.8541L16.4061 21.0312L14.354 18.9791C14.2825 18.9024 14.1962 18.8408 14.1004 18.7981C14.0046 18.7554 13.9011 18.7324 13.7962 18.7306C13.6913 18.7287 13.5871 18.748 13.4898 18.7873C13.3926 18.8266 13.3042 18.8851 13.23 18.9593C13.1558 19.0335 13.0973 19.1219 13.058 19.2191C13.0187 19.3164 12.9995 19.4206 13.0013 19.5255C13.0032 19.6304 13.0261 19.7339 13.0688 19.8297C13.1115 19.9255 13.1731 20.0118 13.2498 20.0833L15.854 22.6875C16.0005 22.8338 16.1991 22.9159 16.4061 22.9159C16.6131 22.9159 16.8117 22.8338 16.9582 22.6875L22.6873 16.9583Z" fill="black"/>
</svg>
