<svg width="18" height="19" viewBox="0 0 18 19" fill="none" xmlns="http://www.w3.org/2000/svg">
<path d="M6 18.25H3C2.65324 18.2648 2.30697 18.211 1.98101 18.0918C1.65505 17.9726 1.3558 17.7902 1.10038 17.5552C0.844953 17.3203 0.638372 17.0372 0.492455 16.7223C0.346538 16.4074 0.264148 16.0668 0.25 15.72V3.28C0.264148 2.93322 0.346538 2.59262 0.492455 2.27771C0.638372 1.9628 0.844953 1.67975 1.10038 1.44476C1.3558 1.20977 1.65505 1.02745 1.98101 0.90824C2.30697 0.789025 2.65324 0.735255 3 0.750005H6C6.19891 0.750005 6.38968 0.829022 6.53033 0.969675C6.67098 1.11033 6.75 1.30109 6.75 1.5C6.75 1.69892 6.67098 1.88968 6.53033 2.03033C6.38968 2.17099 6.19891 2.25 6 2.25H3C2.70307 2.22419 2.4076 2.31365 2.17487 2.49984C1.94213 2.68602 1.78999 2.95465 1.75 3.25V15.72C1.78999 16.0154 1.94213 16.284 2.17487 16.4702C2.4076 16.6564 2.70307 16.7458 3 16.72H6C6.19891 16.72 6.38968 16.799 6.53033 16.9397C6.67098 17.0803 6.75 17.2711 6.75 17.47C6.75 17.6689 6.67098 17.8597 6.53033 18.0003C6.38968 18.141 6.19891 18.22 6 18.22V18.25ZM13 14.25C12.9015 14.2505 12.8038 14.2312 12.7128 14.1935C12.6218 14.1557 12.5392 14.1001 12.47 14.03C12.3295 13.8894 12.2507 13.6988 12.2507 13.5C12.2507 13.3013 12.3295 13.1106 12.47 12.97L15.94 9.5L12.47 6.03C12.3963 5.96134 12.3372 5.87854 12.2962 5.78654C12.2552 5.69454 12.2332 5.59523 12.2314 5.49453C12.2296 5.39382 12.2482 5.2938 12.2859 5.20041C12.3236 5.10702 12.3797 5.02219 12.451 4.95097C12.5222 4.87975 12.607 4.8236 12.7004 4.78588C12.7938 4.74816 12.8938 4.72964 12.9945 4.73141C13.0952 4.73319 13.1945 4.75523 13.2865 4.79622C13.3785 4.83722 13.4613 4.89632 13.53 4.97L17.53 8.97001C17.6705 9.11063 17.7493 9.30125 17.7493 9.5C17.7493 9.69876 17.6705 9.88938 17.53 10.03L13.53 14.03C13.4608 14.1001 13.3782 14.1557 13.2872 14.1935C13.1962 14.2312 13.0985 14.2505 13 14.25Z" fill="#FFD0EC"/>
<path d="M17 10.25H6C5.80109 10.25 5.61032 10.171 5.46967 10.0303C5.32902 9.88968 5.25 9.69891 5.25 9.5C5.25 9.30109 5.32902 9.11032 5.46967 8.96967C5.61032 8.82902 5.80109 8.75 6 8.75H17C17.1989 8.75 17.3897 8.82902 17.5303 8.96967C17.671 9.11032 17.75 9.30109 17.75 9.5C17.75 9.69891 17.671 9.88968 17.5303 10.0303C17.3897 10.171 17.1989 10.25 17 10.25Z" fill="#FFD0EC"/>
</svg>
