<svg width="8" height="15" viewBox="0 0 8 15" fill="none" xmlns="http://www.w3.org/2000/svg">
<path d="M1.41655 14.7916C1.17316 14.7921 0.937288 14.7074 0.74988 14.5521C0.644402 14.4646 0.557213 14.3572 0.493305 14.236C0.429396 14.1148 0.390025 13.9822 0.377446 13.8458C0.364867 13.7093 0.379328 13.5718 0.419999 13.4409C0.46067 13.3101 0.526753 13.1886 0.614463 13.0833L5.28113 7.49998L0.781131 1.90623C0.694604 1.79968 0.629987 1.67708 0.590996 1.54548C0.552004 1.41387 0.539407 1.27586 0.553927 1.13937C0.568447 1.00288 0.609798 0.870611 0.675604 0.750157C0.74141 0.629702 0.830373 0.52344 0.93738 0.437479C1.04516 0.342649 1.17137 0.27112 1.3081 0.227382C1.44483 0.183643 1.58913 0.168639 1.73194 0.183311C1.87474 0.197983 2.01297 0.242014 2.13795 0.312641C2.26294 0.383268 2.37197 0.478965 2.45821 0.593729L7.48946 6.84373C7.64267 7.03012 7.72643 7.26391 7.72643 7.50519C7.72643 7.74646 7.64267 7.98026 7.48946 8.16665L2.28113 14.4166C2.17663 14.5427 2.04389 14.6424 1.89367 14.7075C1.74345 14.7727 1.57999 14.8015 1.41655 14.7916Z" fill="#FFD0EC"/>
</svg>
