<svg width="25" height="25" viewBox="0 0 25 25" fill="none" xmlns="http://www.w3.org/2000/svg">
<path d="M12.5002 14.5833C14.7981 14.5833 16.6668 12.7146 16.6668 10.4167C16.6668 8.11875 14.7981 6.25 12.5002 6.25C10.2022 6.25 8.3335 8.11875 8.3335 10.4167C8.3335 12.7146 10.2022 14.5833 12.5002 14.5833ZM12.5002 8.33333C13.6491 8.33333 14.5835 9.26771 14.5835 10.4167C14.5835 11.5656 13.6491 12.5 12.5002 12.5C11.3512 12.5 10.4168 11.5656 10.4168 10.4167C10.4168 9.26771 11.3512 8.33333 12.5002 8.33333Z" fill="black"/>
<path d="M11.8958 22.723C12.0721 22.8489 12.2833 22.9165 12.4999 22.9165C12.7166 22.9165 12.9278 22.8489 13.1041 22.723C13.4208 22.499 20.8635 17.125 20.8333 10.4167C20.8333 5.82192 17.0947 2.08337 12.4999 2.08337C7.90514 2.08337 4.1666 5.82192 4.1666 10.4115C4.13639 17.125 11.5791 22.499 11.8958 22.723ZM12.4999 4.16671C15.9468 4.16671 18.7499 6.96983 18.7499 10.4219C18.7718 15.0448 14.1791 19.1959 12.4999 20.5573C10.8218 19.1948 6.22805 15.0427 6.24993 10.4167C6.24993 6.96983 9.05305 4.16671 12.4999 4.16671Z" fill="black"/>
</svg>
